<svg version="1.2" baseProfile="tiny-ps" xmlns="http://www.w3.org/2000/svg" viewBox="0 0 1564 256" width="1564" height="256"><title>Caterpillar_logo-svg</title><style>tspan { white-space:pre }.shp0 { fill: #000000 } .shp1 { fill: #ffc400 } </style><g id="layer1"><g id="g2418"><path id="path2384" fill-rule="evenodd" class="shp0" d="M729.67 255.98L675.22 255.98C673.69 253.81 671.46 245.63 671.46 234.54L671.46 167.83C671.46 155.89 665.32 146.95 652.36 146.95L639.09 146.95L639.09 256L585.26 256L585.22 5.19L666.08 5.19C711.23 5.19 725.15 29.27 725.15 68.01C725.15 95.48 718.15 116.94 692.59 123.72C714.58 127.66 724.87 144.44 724.87 173.3L724.87 234.15C724.87 245.25 727.77 253.91 729.67 255.98ZM671.71 77.05C671.71 57.29 667.66 48.25 655.34 48.25L639.08 48.25L639.08 105.03L653.27 104.7C667.16 104.7 671.71 96.81 671.71 77.05Z" /><path id="path2386" class="shp0" d="M121.05 213.34C130.68 205.31 132.33 195.36 132.33 186.43L132.33 148.93L80 148.93L80 199.81C80 207.09 74.12 213 66.85 213C59.58 213 54.17 207.09 54.17 199.81L54.17 55.68C54.17 48.41 59.58 42.5 66.85 42.5C74.12 42.5 80 48.41 80 55.68L80 106.89L132.26 106.89L132.26 53.76C132.26 24.42 113.09 0.27 66.4 0.21C18.46 0.21 0.34 24.47 0.34 53.82L0.34 204.32C0.34 233.4 23.42 255.41 52.94 255.41L69.15 255.41L121.05 213.34Z" /><path id="path2388" fill-rule="evenodd" class="shp0" d="M1563.63 255.87L1509.23 255.87C1507.72 253.69 1505.43 245.53 1505.43 234.43L1505.43 167.71C1505.43 155.76 1499.35 146.83 1486.37 146.83L1473.2 146.83L1473.2 255.87L1419.24 255.87L1419.24 5.06L1500.12 5.06C1545.22 5.06 1559.18 29.14 1559.18 67.9C1559.18 95.37 1552.19 116.81 1526.63 123.57C1548.62 127.53 1558.87 144.31 1558.87 173.15L1558.87 234.02C1558.87 245.11 1561.76 253.78 1563.63 255.87ZM1505.74 76.9C1505.74 57.16 1501.67 48.12 1489.38 48.12L1473.03 48.12L1473.03 104.57L1487.32 104.57C1501.22 104.57 1505.74 96.68 1505.74 76.9Z" /><path id="path2390" fill-rule="evenodd" class="shp0" d="M1400.45 255.85L1345.91 255.85L1340.6 211.49L1301.67 211.52L1296.33 255.85L1241.84 255.85L1284.84 4.57L1357.22 4.57L1400.45 255.85ZM1335.16 165.62L1321.17 48.59L1307.15 165.62L1335.16 165.62Z" /><path id="polygon2392" class="shp0" d="M996.29 255.82L996.29 5.12L1051.51 5.12L1051.51 208.23L1109.03 208.23L1109.03 255.82L996.29 255.82L996.29 255.82Z" /><path id="rect2394" class="shp0" d="M911.88 5.13L967.05 5.13L967.05 255.84L911.88 255.84L911.88 5.13Z" /><path id="polygon2396" class="shp0" d="M996.29 255.82L996.29 5.12L1051.51 5.12L1051.51 208.23L1109.03 208.23L1109.03 255.82L996.29 255.82L996.29 255.82Z" /><path id="polygon2398" class="shp0" d="M1122.32 255.82L1122.32 5.12L1177.49 5.12L1177.49 208.23L1235.04 208.23L1235.04 255.82L1122.32 255.82L1122.32 255.82Z" /><path id="path2400" fill-rule="evenodd" class="shp0" d="M893.36 80.76C893.36 124.81 884.99 156.41 835.44 156.41L805.26 156.41L805.26 255.94L751.31 255.94L751.31 5.13L835.44 5.13C885.01 5.13 893.37 36.73 893.36 80.76ZM837.8 80.76C837.8 57.81 835.45 48.22 821.46 48.22L805.09 48.22L805.09 111.81L821.55 112.01C835.44 112.01 837.8 104.48 837.8 80.76Z" /><path id="polygon2402" class="shp0" d="M492.01 52.91L492.01 102.59L549.14 102.59L549.14 151.71L492.01 151.71L492.01 207.38L559.89 207.35L559.89 255.75L436.76 255.81L436.76 5.08L436.7 5.08L557.66 5.08L557.66 52.91L492.01 52.91L492.01 52.91Z" /><path id="polygon2404" class="shp0" d="M327.36 219.25L327.36 53.86L291.23 53.86L291.23 5.15L421.95 5.15L421.95 53.86L385.65 53.86L385.65 255.1L370.16 255.1L327.36 219.25L327.36 219.25Z" /><path id="polygon2406" class="shp1" d="M350.78 255.48L223.48 148.76L91.59 255.48L350.78 255.48L350.78 255.48Z" /><path id="path2408" fill-rule="evenodd" class="shp0" d="M305.98 201.36L223.51 132.21L144.41 196.11L186.88 5.41L259.8 5.41L305.98 201.36ZM237.52 120L223.5 47.95L209.41 120L237.52 120Z" /></g></g></svg>