<svg xmlns="http://www.w3.org/2000/svg" xmlns:xlink="http://www.w3.org/1999/xlink" width="96" zoomAndPan="magnify" viewBox="0 0 72 72" height="96" preserveAspectRatio="xMidYMid meet" version="1.0"><defs><g/></defs><g fill="#2b3087" fill-opacity="1"><g transform="translate(5.572935, 50.569881)"><g><path d="M 1.328125 -1.1875 L 5.1875 -1.796875 L 5.1875 -28.25 L 1.328125 -28.828125 L 1.328125 -30.015625 L 23.90625 -30.015625 L 23.90625 -22.828125 L 22.421875 -22.828125 L 21.703125 -27.6875 C 20.023438 -27.894531 17.601562 -28 14.4375 -28 L 9.515625 -28 L 9.515625 -16.28125 L 17.640625 -16.28125 L 18.34375 -19.859375 L 19.78125 -19.859375 L 19.78125 -10.625 L 18.34375 -10.625 L 17.640625 -14.265625 L 9.515625 -14.265625 L 9.515625 -2.015625 L 15.4375 -2.015625 C 19.300781 -2.015625 21.832031 -2.132812 23.03125 -2.375 L 24.3125 -7.921875 L 25.796875 -7.921875 L 25.359375 0 L 1.328125 0 Z M 1.328125 -1.1875 "/></g></g></g><g fill="#2b3087" fill-opacity="1"><g transform="translate(33.861133, 50.401949)"><g><path d="M 26.671875 -15.21875 C 26.671875 -19.414062 25.535156 -22.59375 23.265625 -24.75 C 20.992188 -26.914062 17.757812 -28 13.5625 -28 L 9.515625 -28 L 9.515625 -2.109375 C 11.304688 -1.984375 13.4375 -1.921875 15.90625 -1.921875 C 19.59375 -1.921875 22.304688 -3.003906 24.046875 -5.171875 C 25.796875 -7.335938 26.671875 -10.6875 26.671875 -15.21875 Z M 15 -30.015625 C 20.550781 -30.015625 24.664062 -28.78125 27.34375 -26.3125 C 30.019531 -23.84375 31.359375 -20.128906 31.359375 -15.171875 C 31.359375 -10.160156 30.066406 -6.363281 27.484375 -3.78125 C 24.898438 -1.195312 21.039062 0.09375 15.90625 0.09375 L 5.1875 0 L 1.328125 0 L 1.328125 -1.1875 L 5.1875 -1.796875 L 5.1875 -28.25 L 1.328125 -28.828125 L 1.328125 -30.015625 Z M 15 -30.015625 "/></g></g></g></svg>