<svg version="1.1" id="Layer_1" xmlns="http://www.w3.org/2000/svg" xmlns:xlink="http://www.w3.org/1999/xlink" x="0px" y="0px" viewBox="0 0 489.1 91.5" style="enable-background:new 0 0 489.1 91.5;" xml:space="preserve">
 <style type="text/css">
  .st0{fill:#387C2C;}
	.st1{fill:#FFDD00;}
 </style>
 <g>
  <g>
   <path class="st0" d="M125.7,58.7c0,0,4.4,1.6,9.3,1.6c5.2,0,8.5-0.7,10.3-2.6c1.5-1.5,2.1-4.1,2-7.9V24.8h7.7V51
			c-0.1,11.6-5.7,16.5-18.7,16.5c-6.3,0-10.7-1-10.7-1V58.7z M159.8,50.2c0,8,5.2,17.3,19.9,17.3c14.7,0,19.9-9.3,19.9-17.3
			c0-11.2-7.4-17.9-19.9-17.9C167.2,32.3,159.8,39,159.8,50.2 M179.6,60.6c-4.5,0-12.1-1.4-12.1-10.8c0-6.8,4.4-10.6,12.1-10.6
			c7.7,0,12.1,3.9,12.1,10.6C191.8,59.2,184.2,60.6,179.6,60.6 M232,33.1v13.4h-20.1V33.1h-7.7v33.6h7.7V53.4H232v13.4h7.7V33.1H232
			z M355,59.8v-6.5h17.8v-6.9H355V40h23.1v-6.9h-30.8v33.6h30.8v-6.9H355z M391,59.8v-6.5h17.9v-6.9H391V40h23.1v-6.9h-30.8v33.6
			h30.8v-6.9H391z M466,59.8v-6.5h17.9v-6.9H466V40h23.1v-6.9h-30.8v33.6h30.8v-6.9H466z M308.6,31.7v28.1h10.9
			c5.9,0,15.9-1.8,15.9-14.2c0-8.8-5.8-13.9-15.9-13.9H308.6z M319.6,24.8c14.8,0,23.7,8,23.7,21.3c0,9.5-6.2,20.7-23.7,20.7h-9.8
			h-8.9v-42h8.9H319.6 M454.7,66.7h-9.4L436,54.4h-9.1v12.3h-7.7V33.1h21.9c7.5,0,12,4,12,10.8c0,4-2.2,8.6-8.1,10L454.7,66.7z
			 M441.5,47.6c1.6,0,4.3-0.5,4.3-3.8c0-2.4-1.6-3.7-4.3-3.7h-14.1v7.6L441.5,47.6z M281.6,66.7V33.1h-7.7v22.7l-20.2-22.7H246v33.6
			h7.7V43.8l20.1,22.9H281.6z">
   </path>
   <path class="st0" d="M93.5,9.9C80.6,3.6,65.8,0,50.3,0C34.8,0,20,3.6,7.1,9.9C2.5,21,0,33.1,0,45.7c0,12.6,2.5,24.7,7.1,35.8
			c12.9,6.4,27.7,9.9,43.2,9.9c15.4,0,30.3-3.6,43.2-9.9c4.6-11.1,7.1-23.2,7.1-35.8C100.6,33.1,98.1,21,93.5,9.9">
   </path>
   <path class="st1" d="M90.4,12.6c-12-5.7-25.8-8.8-40.1-8.8c-14.3,0-28.1,3.2-40.1,8.9C6.1,22.9,3.9,34.1,3.9,45.8
			c0,11.6,2.2,22.8,6.3,33.1c12.1,5.7,25.8,8.9,40.2,8.9c14.3,0,28.1-3.2,40.1-8.9c4.1-10.3,6.3-21.4,6.3-33.1
			C96.7,34.1,94.5,22.9,90.4,12.6 M36.6,35.4c-2.1,4.1-3.5,8.8-4.1,14.1l-1.2,0.1c-4.3,0.4-8.8,0.7-13.2,2.4l0.3,1.8
			c7.1,8.8,17.8,14.1,17.9,14.2l0.3-0.3l-2.3-3.7c-0.6-0.4-2-0.7-2.1-0.8c-4.8-1.6-8.2-7.9-8.8-9c4,0,7.5,1.1,10.9,2.3
			c2.2,0.7,4.3,1.4,6.5,1.8c3.8,0.6,7.8-0.1,11.5-0.6c2.9-0.3,5.8-0.3,8.6-0.2c0.3,0.4,3.3,4,6.2,5.5c3.6,1.9,13.9,5,14.5,5.1
			c0.2,0.2,4.2,4.2,6.7,8.9c-11.6,5.4-24.7,8.2-37.8,8.2c-13.2,0-26.3-2.9-38-8.3C8.5,67,6.5,56.5,6.5,45.7c0-10.7,2-21.2,5.8-31.2
			c11.7-5.4,24.8-8.3,38-8.3c13.2,0,26.3,2.8,37.9,8.2c3.9,10,5.8,20.5,5.8,31.3c0,9.8-1.6,19.5-4.9,28.6C85.5,67.9,84,66,84,66
			c0,0-5.2-2.7-6.5-3.8c-1-0.9-1.5-2.7-2.1-4.8c-0.8-2.9-1.8-6.5-4.6-9.4l3.1-1.3c-0.9-6-8-9.9-8.1-10l-0.4,0.2
			c2.7,3.4,3.5,6.3,3.5,8.1c0,0.9-0.1,1.5-0.2,1.7c-0.8-0.3-6.1-2-18.1-1.5c-1.8,0.1-4.3,0-5.8-1.5c-0.9-0.8-1.3-2-1.3-3.5v0
			c0-4.2,1.8-9.8,2-10.5l3.1,0.4c3.7-2.1,5.2-3.8,5.4-4.1L54,25.7c-3.2,0.4-7.3,1.2-7.3,1.2c0.3-0.7,1.1-3.1,1.1-5.8
			c0-2.9-1-6.2-4.7-8.1l-0.4,0.2c0,0,2.2,2.4,2.2,5.5c0,0.9-0.2,1.8-0.6,2.8c-1.2-0.5-1.7-0.6-3.2-0.6c-0.7-2.5-2.9-4.6-5.8-5.7
			l-0.4,0.2c0,0,3.2,2.2,3.3,5.5c-1.6,0.1-2.3,0.3-4.2,0.9c-0.8-1.4-2.7-2.3-5-2.6l-0.3,0.2c0,0,2.8,1,3.4,3.1c-1.7,0.8-3.5,2-4.7,3
			l0.1,0.5c7.1-2.8,13.8-3.6,15.5-1.6c0.3,0.3,0.4,0.7,0.4,1.2c0,0.6-0.2,1.3-0.7,2.1c-3.5,0.8-8.8,2.3-13.2,3.9l0.6,1.8
			c0,0,4.4,0.9,6,1.2C36.3,34.6,36.9,34.7,36.6,35.4">
   </path>
  </g>
 </g>
</svg>