<svg xmlns="http://www.w3.org/2000/svg" xmlns:xlink="http://www.w3.org/1999/xlink" width="1366" zoomAndPan="magnify" viewBox="0 0 1024.5 576" height="768" preserveAspectRatio="xMidYMid meet" version="1.0"><defs><g/></defs><g fill="#2b3087" fill-opacity="1"><g transform="translate(111.909538, 322.437672)"><g><path d="M 4.890625 -4.390625 L 19.140625 -6.625 L 19.140625 -104.578125 L 4.890625 -106.734375 L 4.890625 -111.125 L 88.25 -111.125 L 88.25 -84.515625 L 82.78125 -84.515625 L 80.140625 -102.5 C 73.953125 -103.269531 65 -103.65625 53.28125 -103.65625 L 35.140625 -103.65625 L 35.140625 -60.234375 L 65.140625 -60.234375 L 67.703125 -73.5 L 73.015625 -73.5 L 73.015625 -39.359375 L 67.703125 -39.359375 L 65.140625 -52.78125 L 35.140625 -52.78125 L 35.140625 -7.453125 L 57.015625 -7.453125 C 71.265625 -7.453125 80.601562 -7.894531 85.03125 -8.78125 L 89.75 -29.328125 L 95.21875 -29.328125 L 93.640625 0 L 4.890625 0 Z M 4.890625 -4.390625 "/></g></g></g><g fill="#2b3087" fill-opacity="1"><g transform="translate(216.359031, 321.812724)"><g><path d="M 98.453125 -56.34375 C 98.453125 -71.863281 94.265625 -83.628906 85.890625 -91.640625 C 77.523438 -99.648438 65.578125 -103.65625 50.046875 -103.65625 L 35.140625 -103.65625 L 35.140625 -7.796875 C 41.765625 -7.347656 49.632812 -7.125 58.75 -7.125 C 72.34375 -7.125 82.359375 -11.128906 88.796875 -19.140625 C 95.234375 -27.148438 98.453125 -39.550781 98.453125 -56.34375 Z M 55.359375 -111.125 C 75.859375 -111.125 91.050781 -106.550781 100.9375 -97.40625 C 110.820312 -88.257812 115.765625 -74.519531 115.765625 -56.1875 C 115.765625 -37.625 111 -23.5625 101.46875 -14 C 91.945312 -4.445312 77.707031 0.328125 58.75 0.328125 L 19.140625 0 L 4.890625 0 L 4.890625 -4.390625 L 19.140625 -6.625 L 19.140625 -104.578125 L 4.890625 -106.734375 L 4.890625 -111.125 Z M 55.359375 -111.125 "/></g></g></g><g fill="#2b3087" fill-opacity="1"><g transform="translate(375.773135, 261.43356)"><g><path d="M 40.5625 -23.21875 C 40.5625 -29.613281 38.835938 -34.460938 35.390625 -37.765625 C 31.941406 -41.066406 27.019531 -42.71875 20.625 -42.71875 L 14.484375 -42.71875 L 14.484375 -3.203125 C 17.210938 -3.023438 20.457031 -2.9375 24.21875 -2.9375 C 29.8125 -2.9375 33.929688 -4.585938 36.578125 -7.890625 C 39.234375 -11.191406 40.5625 -16.300781 40.5625 -23.21875 Z M 22.8125 -45.796875 C 31.257812 -45.796875 37.519531 -43.910156 41.59375 -40.140625 C 45.664062 -36.367188 47.703125 -30.707031 47.703125 -23.15625 C 47.703125 -15.5 45.738281 -9.703125 41.8125 -5.765625 C 37.882812 -1.828125 32.019531 0.140625 24.21875 0.140625 L 7.890625 0 L 2.015625 0 L 2.015625 -1.8125 L 7.890625 -2.734375 L 7.890625 -43.09375 L 2.015625 -43.984375 L 2.015625 -45.796875 Z M 22.8125 -45.796875 "/></g></g></g><g fill="#2b3087" fill-opacity="1"><g transform="translate(426.275495, 261.43356)"><g><path d="M 2.015625 -1.8125 L 7.890625 -2.734375 L 7.890625 -43.09375 L 2.015625 -43.984375 L 2.015625 -45.796875 L 36.375 -45.796875 L 36.375 -34.828125 L 34.109375 -34.828125 L 33.015625 -42.25 C 30.472656 -42.5625 26.785156 -42.71875 21.953125 -42.71875 L 14.484375 -42.71875 L 14.484375 -24.828125 L 26.84375 -24.828125 L 27.90625 -30.296875 L 30.078125 -30.296875 L 30.078125 -16.21875 L 27.90625 -16.21875 L 26.84375 -21.75 L 14.484375 -21.75 L 14.484375 -3.078125 L 23.5 -3.078125 C 29.375 -3.078125 33.21875 -3.257812 35.03125 -3.625 L 36.984375 -12.09375 L 39.234375 -12.09375 L 38.59375 0 L 2.015625 0 Z M 2.015625 -1.8125 "/></g></g></g><g fill="#2b3087" fill-opacity="1"><g transform="translate(468.992502, 261.43356)"><g><path d="M 4.75 -12.328125 L 6.96875 -12.328125 L 8.15625 -6.140625 C 9 -5.078125 10.453125 -4.132812 12.515625 -3.3125 C 14.578125 -2.488281 16.609375 -2.078125 18.609375 -2.078125 C 21.796875 -2.078125 24.28125 -2.890625 26.0625 -4.515625 C 27.851562 -6.148438 28.75 -8.398438 28.75 -11.265625 C 28.75 -12.910156 28.398438 -14.265625 27.703125 -15.328125 C 27.015625 -16.398438 26.109375 -17.304688 24.984375 -18.046875 C 23.859375 -18.785156 22.578125 -19.410156 21.140625 -19.921875 C 19.703125 -20.429688 18.222656 -20.945312 16.703125 -21.46875 C 15.191406 -22 13.71875 -22.582031 12.28125 -23.21875 C 10.851562 -23.851562 9.578125 -24.660156 8.453125 -25.640625 C 7.328125 -26.617188 6.414062 -27.832031 5.71875 -29.28125 C 5.019531 -30.726562 4.671875 -32.507812 4.671875 -34.625 C 4.671875 -38.269531 6.035156 -41.128906 8.765625 -43.203125 C 11.503906 -45.273438 15.296875 -46.3125 20.140625 -46.3125 C 23.835938 -46.3125 27.847656 -45.820312 32.171875 -44.84375 L 32.171875 -35.3125 L 29.953125 -35.3125 L 28.75 -40.90625 C 26.425781 -42.59375 23.554688 -43.4375 20.140625 -43.4375 C 17.097656 -43.4375 14.71875 -42.816406 13 -41.578125 C 11.28125 -40.335938 10.421875 -38.625 10.421875 -36.4375 C 10.421875 -34.957031 10.765625 -33.726562 11.453125 -32.75 C 12.148438 -31.769531 13.0625 -30.929688 14.1875 -30.234375 C 15.3125 -29.546875 16.597656 -28.945312 18.046875 -28.4375 C 19.492188 -27.9375 20.972656 -27.421875 22.484375 -26.890625 C 24.003906 -26.359375 25.484375 -25.753906 26.921875 -25.078125 C 28.367188 -24.410156 29.65625 -23.554688 30.78125 -22.515625 C 31.90625 -21.484375 32.816406 -20.222656 33.515625 -18.734375 C 34.210938 -17.242188 34.5625 -15.40625 34.5625 -13.21875 C 34.5625 -8.800781 33.207031 -5.378906 30.5 -2.953125 C 27.789062 -0.523438 23.882812 0.6875 18.78125 0.6875 C 16.320312 0.6875 13.851562 0.46875 11.375 0.03125 C 8.894531 -0.394531 6.6875 -0.984375 4.75 -1.734375 Z M 4.75 -12.328125 "/></g></g></g><g fill="#2b3087" fill-opacity="1"><g transform="translate(507.885124, 261.43356)"><g><path d="M 2.015625 -1.8125 L 7.890625 -2.734375 L 7.890625 -43.09375 L 2.015625 -43.984375 L 2.015625 -45.796875 L 36.375 -45.796875 L 36.375 -34.828125 L 34.109375 -34.828125 L 33.015625 -42.25 C 30.472656 -42.5625 26.785156 -42.71875 21.953125 -42.71875 L 14.484375 -42.71875 L 14.484375 -24.828125 L 26.84375 -24.828125 L 27.90625 -30.296875 L 30.078125 -30.296875 L 30.078125 -16.21875 L 27.90625 -16.21875 L 26.84375 -21.75 L 14.484375 -21.75 L 14.484375 -3.078125 L 23.5 -3.078125 C 29.375 -3.078125 33.21875 -3.257812 35.03125 -3.625 L 36.984375 -12.09375 L 39.234375 -12.09375 L 38.59375 0 L 2.015625 0 Z M 2.015625 -1.8125 "/></g></g></g><g fill="#2b3087" fill-opacity="1"><g transform="translate(550.60213, 261.43356)"><g><path d="M 39.4375 -43.09375 L 33.296875 -43.984375 L 33.296875 -45.796875 L 48.90625 -45.796875 L 48.90625 -43.984375 L 43.03125 -43.09375 L 43.03125 0 L 39.71875 0 L 11.46875 -41.1875 L 11.46875 -2.734375 L 17.625 -1.8125 L 17.625 0 L 2.015625 0 L 2.015625 -1.8125 L 7.890625 -2.734375 L 7.890625 -43.09375 L 2.015625 -43.984375 L 2.015625 -45.796875 L 15.875 -45.796875 L 39.4375 -11.890625 Z M 39.4375 -43.09375 "/></g></g></g><g fill="#2b3087" fill-opacity="1"><g transform="translate(601.104502, 261.43356)"><g><path d="M 2.015625 0 L 2.015625 -1.8125 L 7.890625 -2.734375 L 7.890625 -43.09375 L 2.015625 -43.984375 L 2.015625 -45.796875 L 20.359375 -45.796875 L 20.359375 -43.984375 L 14.484375 -43.09375 L 14.484375 -25.09375 L 36.03125 -25.09375 L 36.03125 -43.09375 L 30.15625 -43.984375 L 30.15625 -45.796875 L 48.453125 -45.796875 L 48.453125 -43.984375 L 42.578125 -43.09375 L 42.578125 -2.734375 L 48.453125 -1.8125 L 48.453125 0 L 30.15625 0 L 30.15625 -1.8125 L 36.03125 -2.734375 L 36.03125 -22.03125 L 14.484375 -22.03125 L 14.484375 -2.734375 L 20.359375 -1.8125 L 20.359375 0 Z M 2.015625 0 "/></g></g></g><g fill="#2b3087" fill-opacity="1"><g transform="translate(651.606851, 261.43356)"><g><path d="M 10 -22.953125 C 10 -15.597656 11.226562 -10.269531 13.6875 -6.96875 C 16.144531 -3.664062 19.992188 -2.015625 25.234375 -2.015625 C 30.453125 -2.015625 34.300781 -3.664062 36.78125 -6.96875 C 39.257812 -10.269531 40.5 -15.597656 40.5 -22.953125 C 40.5 -30.253906 39.265625 -35.515625 36.796875 -38.734375 C 34.328125 -41.960938 30.472656 -43.578125 25.234375 -43.578125 C 19.972656 -43.578125 16.117188 -41.960938 13.671875 -38.734375 C 11.222656 -35.515625 10 -30.253906 10 -22.953125 Z M 2.875 -22.953125 C 2.875 -38.523438 10.328125 -46.3125 25.234375 -46.3125 C 32.609375 -46.3125 38.1875 -44.332031 41.96875 -40.375 C 45.75 -36.425781 47.640625 -30.617188 47.640625 -22.953125 C 47.640625 -15.160156 45.722656 -9.269531 41.890625 -5.28125 C 38.066406 -1.300781 32.515625 0.6875 25.234375 0.6875 C 17.972656 0.6875 12.429688 -1.296875 8.609375 -5.265625 C 4.785156 -9.242188 2.875 -15.140625 2.875 -22.953125 Z M 2.875 -22.953125 "/></g></g></g><g fill="#2b3087" fill-opacity="1"><g transform="translate(702.1092, 261.43356)"><g><path d="M 4.75 -12.328125 L 6.96875 -12.328125 L 8.15625 -6.140625 C 9 -5.078125 10.453125 -4.132812 12.515625 -3.3125 C 14.578125 -2.488281 16.609375 -2.078125 18.609375 -2.078125 C 21.796875 -2.078125 24.28125 -2.890625 26.0625 -4.515625 C 27.851562 -6.148438 28.75 -8.398438 28.75 -11.265625 C 28.75 -12.910156 28.398438 -14.265625 27.703125 -15.328125 C 27.015625 -16.398438 26.109375 -17.304688 24.984375 -18.046875 C 23.859375 -18.785156 22.578125 -19.410156 21.140625 -19.921875 C 19.703125 -20.429688 18.222656 -20.945312 16.703125 -21.46875 C 15.191406 -22 13.71875 -22.582031 12.28125 -23.21875 C 10.851562 -23.851562 9.578125 -24.660156 8.453125 -25.640625 C 7.328125 -26.617188 6.414062 -27.832031 5.71875 -29.28125 C 5.019531 -30.726562 4.671875 -32.507812 4.671875 -34.625 C 4.671875 -38.269531 6.035156 -41.128906 8.765625 -43.203125 C 11.503906 -45.273438 15.296875 -46.3125 20.140625 -46.3125 C 23.835938 -46.3125 27.847656 -45.820312 32.171875 -44.84375 L 32.171875 -35.3125 L 29.953125 -35.3125 L 28.75 -40.90625 C 26.425781 -42.59375 23.554688 -43.4375 20.140625 -43.4375 C 17.097656 -43.4375 14.71875 -42.816406 13 -41.578125 C 11.28125 -40.335938 10.421875 -38.625 10.421875 -36.4375 C 10.421875 -34.957031 10.765625 -33.726562 11.453125 -32.75 C 12.148438 -31.769531 13.0625 -30.929688 14.1875 -30.234375 C 15.3125 -29.546875 16.597656 -28.945312 18.046875 -28.4375 C 19.492188 -27.9375 20.972656 -27.421875 22.484375 -26.890625 C 24.003906 -26.359375 25.484375 -25.753906 26.921875 -25.078125 C 28.367188 -24.410156 29.65625 -23.554688 30.78125 -22.515625 C 31.90625 -21.484375 32.816406 -20.222656 33.515625 -18.734375 C 34.210938 -17.242188 34.5625 -15.40625 34.5625 -13.21875 C 34.5625 -8.800781 33.207031 -5.378906 30.5 -2.953125 C 27.789062 -0.523438 23.882812 0.6875 18.78125 0.6875 C 16.320312 0.6875 13.851562 0.46875 11.375 0.03125 C 8.894531 -0.394531 6.6875 -0.984375 4.75 -1.734375 Z M 4.75 -12.328125 "/></g></g></g><g fill="#2b3087" fill-opacity="1"><g transform="translate(511.050644, 332.535125)"><g><path d="M 14.953125 -2.734375 L 20.828125 -1.8125 L 20.828125 0 L 2.53125 0 L 2.53125 -1.8125 L 8.40625 -2.734375 L 8.40625 -43.09375 L 2.53125 -43.984375 L 2.53125 -45.796875 L 20.828125 -45.796875 L 20.828125 -43.984375 L 14.953125 -43.09375 Z M 14.953125 -2.734375 "/></g></g></g><g fill="#2b3087" fill-opacity="1"><g transform="translate(534.338413, 332.535125)"><g><path d="M 39.4375 -43.09375 L 33.296875 -43.984375 L 33.296875 -45.796875 L 48.90625 -45.796875 L 48.90625 -43.984375 L 43.03125 -43.09375 L 43.03125 0 L 39.71875 0 L 11.46875 -41.1875 L 11.46875 -2.734375 L 17.625 -1.8125 L 17.625 0 L 2.015625 0 L 2.015625 -1.8125 L 7.890625 -2.734375 L 7.890625 -43.09375 L 2.015625 -43.984375 L 2.015625 -45.796875 L 15.875 -45.796875 L 39.4375 -11.890625 Z M 39.4375 -43.09375 "/></g></g></g><g fill="#2b3087" fill-opacity="1"><g transform="translate(584.840773, 332.535125)"><g><path d="M 40.5625 -23.21875 C 40.5625 -29.613281 38.835938 -34.460938 35.390625 -37.765625 C 31.941406 -41.066406 27.019531 -42.71875 20.625 -42.71875 L 14.484375 -42.71875 L 14.484375 -3.203125 C 17.210938 -3.023438 20.457031 -2.9375 24.21875 -2.9375 C 29.8125 -2.9375 33.929688 -4.585938 36.578125 -7.890625 C 39.234375 -11.191406 40.5625 -16.300781 40.5625 -23.21875 Z M 22.8125 -45.796875 C 31.257812 -45.796875 37.519531 -43.910156 41.59375 -40.140625 C 45.664062 -36.367188 47.703125 -30.707031 47.703125 -23.15625 C 47.703125 -15.5 45.738281 -9.703125 41.8125 -5.765625 C 37.882812 -1.828125 32.019531 0.140625 24.21875 0.140625 L 7.890625 0 L 2.015625 0 L 2.015625 -1.8125 L 7.890625 -2.734375 L 7.890625 -43.09375 L 2.015625 -43.984375 L 2.015625 -45.796875 Z M 22.8125 -45.796875 "/></g></g></g><g fill="#2b3087" fill-opacity="1"><g transform="translate(635.343133, 332.535125)"><g><path d="M 39.578125 -43.09375 L 33.4375 -43.984375 L 33.4375 -45.796875 L 49.03125 -45.796875 L 49.03125 -43.984375 L 43.171875 -43.09375 L 43.171875 -15.75 C 43.171875 -10.257812 41.660156 -6.144531 38.640625 -3.40625 C 35.617188 -0.675781 31.242188 0.6875 25.515625 0.6875 C 19.429688 0.6875 14.878906 -0.679688 11.859375 -3.421875 C 8.847656 -6.171875 7.34375 -10.0625 7.34375 -15.09375 L 7.34375 -43.09375 L 1.46875 -43.984375 L 1.46875 -45.796875 L 19.765625 -45.796875 L 19.765625 -43.984375 L 13.90625 -43.09375 L 13.90625 -15.609375 C 13.90625 -7.296875 17.941406 -3.140625 26.015625 -3.140625 C 30.390625 -3.140625 33.742188 -4.175781 36.078125 -6.25 C 38.410156 -8.320312 39.578125 -11.394531 39.578125 -15.46875 Z M 39.578125 -43.09375 "/></g></g></g><g fill="#2b3087" fill-opacity="1"><g transform="translate(685.845493, 332.535125)"><g><path d="M 4.75 -12.328125 L 6.96875 -12.328125 L 8.15625 -6.140625 C 9 -5.078125 10.453125 -4.132812 12.515625 -3.3125 C 14.578125 -2.488281 16.609375 -2.078125 18.609375 -2.078125 C 21.796875 -2.078125 24.28125 -2.890625 26.0625 -4.515625 C 27.851562 -6.148438 28.75 -8.398438 28.75 -11.265625 C 28.75 -12.910156 28.398438 -14.265625 27.703125 -15.328125 C 27.015625 -16.398438 26.109375 -17.304688 24.984375 -18.046875 C 23.859375 -18.785156 22.578125 -19.410156 21.140625 -19.921875 C 19.703125 -20.429688 18.222656 -20.945312 16.703125 -21.46875 C 15.191406 -22 13.71875 -22.582031 12.28125 -23.21875 C 10.851562 -23.851562 9.578125 -24.660156 8.453125 -25.640625 C 7.328125 -26.617188 6.414062 -27.832031 5.71875 -29.28125 C 5.019531 -30.726562 4.671875 -32.507812 4.671875 -34.625 C 4.671875 -38.269531 6.035156 -41.128906 8.765625 -43.203125 C 11.503906 -45.273438 15.296875 -46.3125 20.140625 -46.3125 C 23.835938 -46.3125 27.847656 -45.820312 32.171875 -44.84375 L 32.171875 -35.3125 L 29.953125 -35.3125 L 28.75 -40.90625 C 26.425781 -42.59375 23.554688 -43.4375 20.140625 -43.4375 C 17.097656 -43.4375 14.71875 -42.816406 13 -41.578125 C 11.28125 -40.335938 10.421875 -38.625 10.421875 -36.4375 C 10.421875 -34.957031 10.765625 -33.726562 11.453125 -32.75 C 12.148438 -31.769531 13.0625 -30.929688 14.1875 -30.234375 C 15.3125 -29.546875 16.597656 -28.945312 18.046875 -28.4375 C 19.492188 -27.9375 20.972656 -27.421875 22.484375 -26.890625 C 24.003906 -26.359375 25.484375 -25.753906 26.921875 -25.078125 C 28.367188 -24.410156 29.65625 -23.554688 30.78125 -22.515625 C 31.90625 -21.484375 32.816406 -20.222656 33.515625 -18.734375 C 34.210938 -17.242188 34.5625 -15.40625 34.5625 -13.21875 C 34.5625 -8.800781 33.207031 -5.378906 30.5 -2.953125 C 27.789062 -0.523438 23.882812 0.6875 18.78125 0.6875 C 16.320312 0.6875 13.851562 0.46875 11.375 0.03125 C 8.894531 -0.394531 6.6875 -0.984375 4.75 -1.734375 Z M 4.75 -12.328125 "/></g></g></g><g fill="#2b3087" fill-opacity="1"><g transform="translate(724.738116, 332.535125)"><g><path d="M 10.75 0 L 10.75 -1.8125 L 18.03125 -2.734375 L 18.03125 -42.859375 L 16.296875 -42.859375 C 10.535156 -42.859375 6.59375 -42.628906 4.46875 -42.171875 L 3.546875 -35.03125 L 1.265625 -35.03125 L 1.265625 -45.796875 L 41.5625 -45.796875 L 41.5625 -35.03125 L 39.234375 -35.03125 L 38.3125 -42.171875 C 37.632812 -42.328125 36.144531 -42.46875 33.84375 -42.59375 C 31.539062 -42.71875 29.023438 -42.78125 26.296875 -42.78125 L 24.625 -42.78125 L 24.625 -2.734375 L 31.890625 -1.8125 L 31.890625 0 Z M 10.75 0 "/></g></g></g><g fill="#2b3087" fill-opacity="1"><g transform="translate(767.455111, 332.535125)"><g><path d="M 14.484375 -20.078125 L 14.484375 -2.734375 L 21.40625 -1.8125 L 21.40625 0 L 2.453125 0 L 2.453125 -1.8125 L 7.890625 -2.734375 L 7.890625 -43.09375 L 2.015625 -43.984375 L 2.015625 -45.796875 L 21.78125 -45.796875 C 27.519531 -45.796875 31.753906 -44.828125 34.484375 -42.890625 C 37.222656 -40.953125 38.59375 -37.84375 38.59375 -33.5625 C 38.59375 -30.519531 37.757812 -27.882812 36.09375 -25.65625 C 34.4375 -23.4375 32.140625 -21.894531 29.203125 -21.03125 L 41.59375 -2.734375 L 46.546875 -1.8125 L 46.546875 0 L 35.578125 0 L 22.703125 -20.078125 Z M 31.796875 -33.09375 C 31.796875 -36.570312 30.945312 -39.046875 29.25 -40.515625 C 27.550781 -41.984375 24.570312 -42.71875 20.3125 -42.71875 L 14.484375 -42.71875 L 14.484375 -23.15625 L 20.53125 -23.15625 C 24.601562 -23.15625 27.5 -23.910156 29.21875 -25.421875 C 30.9375 -26.929688 31.796875 -29.488281 31.796875 -33.09375 Z M 31.796875 -33.09375 "/></g></g></g><g fill="#2b3087" fill-opacity="1"><g transform="translate(814.098964, 332.535125)"><g><path d="M 14.953125 -2.734375 L 20.828125 -1.8125 L 20.828125 0 L 2.53125 0 L 2.53125 -1.8125 L 8.40625 -2.734375 L 8.40625 -43.09375 L 2.53125 -43.984375 L 2.53125 -45.796875 L 20.828125 -45.796875 L 20.828125 -43.984375 L 14.953125 -43.09375 Z M 14.953125 -2.734375 "/></g></g></g><g fill="#2b3087" fill-opacity="1"><g transform="translate(837.386709, 332.535125)"><g><path d="M 15.75 -1.8125 L 15.75 0 L 0.6875 0 L 0.6875 -1.8125 L 5.875 -2.734375 L 21.484375 -46.171875 L 27.96875 -46.171875 L 44.1875 -2.734375 L 50 -1.8125 L 50 0 L 30.625 0 L 30.625 -1.8125 L 36.78125 -2.734375 L 32.234375 -15.953125 L 14.203125 -15.953125 L 9.59375 -2.734375 Z M 23.078125 -41.25 L 15.234375 -19.015625 L 31.171875 -19.015625 Z M 23.078125 -41.25 "/></g></g></g><g fill="#2b3087" fill-opacity="1"><g transform="translate(887.889081, 332.535125)"><g><path d="M 14.953125 -2.734375 L 20.828125 -1.8125 L 20.828125 0 L 2.53125 0 L 2.53125 -1.8125 L 8.40625 -2.734375 L 8.40625 -43.09375 L 2.53125 -43.984375 L 2.53125 -45.796875 L 20.828125 -45.796875 L 20.828125 -43.984375 L 14.953125 -43.09375 Z M 14.953125 -2.734375 "/></g></g></g><g fill="#2b3087" fill-opacity="1"><g transform="translate(911.176872, 332.535125)"><g><path d="M 4.75 -12.328125 L 6.96875 -12.328125 L 8.15625 -6.140625 C 9 -5.078125 10.453125 -4.132812 12.515625 -3.3125 C 14.578125 -2.488281 16.609375 -2.078125 18.609375 -2.078125 C 21.796875 -2.078125 24.28125 -2.890625 26.0625 -4.515625 C 27.851562 -6.148438 28.75 -8.398438 28.75 -11.265625 C 28.75 -12.910156 28.398438 -14.265625 27.703125 -15.328125 C 27.015625 -16.398438 26.109375 -17.304688 24.984375 -18.046875 C 23.859375 -18.785156 22.578125 -19.410156 21.140625 -19.921875 C 19.703125 -20.429688 18.222656 -20.945312 16.703125 -21.46875 C 15.191406 -22 13.71875 -22.582031 12.28125 -23.21875 C 10.851562 -23.851562 9.578125 -24.660156 8.453125 -25.640625 C 7.328125 -26.617188 6.414062 -27.832031 5.71875 -29.28125 C 5.019531 -30.726562 4.671875 -32.507812 4.671875 -34.625 C 4.671875 -38.269531 6.035156 -41.128906 8.765625 -43.203125 C 11.503906 -45.273438 15.296875 -46.3125 20.140625 -46.3125 C 23.835938 -46.3125 27.847656 -45.820312 32.171875 -44.84375 L 32.171875 -35.3125 L 29.953125 -35.3125 L 28.75 -40.90625 C 26.425781 -42.59375 23.554688 -43.4375 20.140625 -43.4375 C 17.097656 -43.4375 14.71875 -42.816406 13 -41.578125 C 11.28125 -40.335938 10.421875 -38.625 10.421875 -36.4375 C 10.421875 -34.957031 10.765625 -33.726562 11.453125 -32.75 C 12.148438 -31.769531 13.0625 -30.929688 14.1875 -30.234375 C 15.3125 -29.546875 16.597656 -28.945312 18.046875 -28.4375 C 19.492188 -27.9375 20.972656 -27.421875 22.484375 -26.890625 C 24.003906 -26.359375 25.484375 -25.753906 26.921875 -25.078125 C 28.367188 -24.410156 29.65625 -23.554688 30.78125 -22.515625 C 31.90625 -21.484375 32.816406 -20.222656 33.515625 -18.734375 C 34.210938 -17.242188 34.5625 -15.40625 34.5625 -13.21875 C 34.5625 -8.800781 33.207031 -5.378906 30.5 -2.953125 C 27.789062 -0.523438 23.882812 0.6875 18.78125 0.6875 C 16.320312 0.6875 13.851562 0.46875 11.375 0.03125 C 8.894531 -0.394531 6.6875 -0.984375 4.75 -1.734375 Z M 4.75 -12.328125 "/></g></g></g></svg>