<?xml version="1.0" encoding="UTF-8"?>
<svg id="Layer_3" data-name="Layer 3" xmlns="http://www.w3.org/2000/svg" viewBox="0 0 1119.57 232.3">
  <defs>
    <style>
      .cls-1 {
        fill: #2b3087;
      }
    </style>
  </defs>
  <path class="cls-1" d="M122.7,34.45v28.95H38.74v97.99h83.96v28.95H9.79V34.45h112.91ZM110,92.13v28.95h-48.99v-28.95h48.99Z"/>
  <path class="cls-1" d="M146.83,189.52V33.63h67.26c43.87,0,80.17,35.19,80.17,77.95s-36.3,77.95-80.17,77.95h-67.26ZM175.78,61.02v101.11h38.3c26.5,0,48.33-22.72,48.33-50.55s-21.83-50.55-48.33-50.55h-38.3Z"/>
  <g>
    <path class="cls-1" d="M349.46,110.29V46.06h27.71c18.08,0,33.04,14.5,33.04,32.12s-14.96,32.12-33.04,32.12h-27.71ZM361.39,57.35v41.66h15.78c10.92,0,19.91-9.36,19.91-20.83s-8.99-20.83-19.91-20.83h-15.78Z"/>
    <path class="cls-1" d="M465,46.06v11.93h-34.6v40.38h34.6v11.93h-46.53V46.06h46.53ZM459.77,69.83v11.93h-20.19v-11.93h20.19Z"/>
    <path class="cls-1" d="M490.42,81.76c-10.92,0-19.91-8.08-19.91-17.89s8.99-17.8,19.91-17.8h34.05v11.29h-34.05c-3.76,0-6.79,2.94-6.79,6.52s3.03,6.61,6.79,6.61h14.22c13.21,0,23.49,8.81,23.49,20.01s-10.37,19.82-23.49,19.82h-30.47v-11.29h30.47c5.87,0,10.37-3.76,10.37-8.53s-4.5-8.72-10.37-8.72h-14.22Z"/>
    <path class="cls-1" d="M582,46.06v11.93h-34.6v40.38h34.6v11.93h-46.53V46.06h46.53ZM576.77,69.83v11.93h-20.19v-11.93h20.19Z"/>
    <path class="cls-1" d="M598.25,46.06l31.94,41.75v-41.75h11.93v64.24h-8.9l-31.93-41.48v41.48h-11.93V46.06h8.9Z"/>
    <path class="cls-1" d="M685.15,81.76h-21.93v28.54h-11.93V46.06h11.93v23.77h21.93v11.93ZM706.26,110.29h-11.93V46.06h11.93v64.24Z"/>
    <path class="cls-1" d="M747.56,45.14c18.17,0,33.04,14.87,33.04,33.04s-14.87,33.04-33.04,33.04-33.04-14.96-33.04-33.04,14.96-33.04,33.04-33.04ZM747.56,99.01c11.01,0,19.91-9.36,19.91-20.83s-8.9-20.83-19.91-20.83-19.91,9.27-19.91,20.83,8.99,20.83,19.91,20.83Z"/>
    <path class="cls-1" d="M806.93,81.76c-10.92,0-19.91-8.08-19.91-17.89s8.99-17.8,19.91-17.8h34.05v11.29h-34.05c-3.76,0-6.79,2.94-6.79,6.52s3.03,6.61,6.79,6.61h14.22c13.21,0,23.49,8.81,23.49,20.01s-10.37,19.82-23.49,19.82h-30.47v-11.29h30.47c5.87,0,10.37-3.76,10.37-8.53s-4.5-8.72-10.37-8.72h-14.22Z"/>
  </g>
  <g>
    <path class="cls-1" d="M538.89,139.35v64.24h-11.93v-64.24h11.93Z"/>
    <path class="cls-1" d="M556.96,139.35l31.94,41.75v-41.75h11.93v64.24h-8.9l-31.94-41.48v41.48h-11.93v-64.24h8.9Z"/>
    <path class="cls-1" d="M610.01,203.59v-64.24h27.71c18.08,0,33.04,14.5,33.04,32.12s-14.96,32.12-33.04,32.12h-27.71ZM621.94,150.64v41.66h15.78c10.92,0,19.91-9.36,19.91-20.83s-8.99-20.83-19.91-20.83h-15.78Z"/>
    <path class="cls-1" d="M736.1,173.03c0,18.81-11.2,30.56-29,30.56s-29-11.75-29-30.56v-33.68h11.93v33.68c0,12.39,6.15,19.27,17.07,19.27s17.07-6.88,17.07-19.27v-33.68h11.93v33.68Z"/>
    <path class="cls-1" d="M762.44,175.05c-10.92,0-19.91-8.08-19.91-17.89s8.99-17.8,19.91-17.8h34.05v11.29h-34.05c-3.76,0-6.79,2.94-6.79,6.52s3.03,6.61,6.79,6.61h14.22c13.21,0,23.49,8.81,23.49,20s-10.37,19.82-23.49,19.82h-30.47v-11.29h30.47c5.87,0,10.37-3.76,10.37-8.53s-4.5-8.72-10.37-8.72h-14.22Z"/>
    <path class="cls-1" d="M865.31,139.35v11.93h-24.32v52.31h-11.93v-52.31h-24.32v-11.93h60.57Z"/>
    <path class="cls-1" d="M871.74,139.35h31.48c13.03,0,26.25,10.37,26.25,23.77,0,7.8-4.5,14.59-10.74,18.9l15.14,21.56h-14.04l-11.93-17.07c-1.56.27-3.12.46-4.68.46h-10.37v-11.93h10.37c6.52,0,14.41-4.86,14.41-11.93s-7.89-11.84-14.41-11.84h-19.55v52.31h-11.93v-64.24Z"/>
    <path class="cls-1" d="M953.14,139.35v64.24h-11.93v-64.24h11.93Z"/>
    <path class="cls-1" d="M988.56,139.35h8.81l29,64.24h-12.3l-21.11-46.71-10.19,22.48h12.11v11.01h-17.07l-5.96,13.21h-12.3l29-64.24Z"/>
    <path class="cls-1" d="M1044.72,139.35v64.24h-11.93v-64.24h11.93Z"/>
    <path class="cls-1" d="M1071.98,175.05c-10.92,0-19.91-8.08-19.91-17.89s8.99-17.8,19.91-17.8h34.05v11.29h-34.05c-3.76,0-6.79,2.94-6.79,6.52s3.03,6.61,6.79,6.61h14.22c13.21,0,23.49,8.81,23.49,20s-10.37,19.82-23.49,19.82h-30.47v-11.29h30.47c5.87,0,10.37-3.76,10.37-8.53s-4.5-8.72-10.37-8.72h-14.22Z"/>
  </g>
</svg>