<svg xmlns="http://www.w3.org/2000/svg" viewBox="0 0 340.16 53.17">
    <path id="H" d="M0,0H26.85V6.82a4.48,4.48,0,0,0-4.46,4.46V22.65H37.17V11.28a4.48,4.48,0,0,0-4.46-4.46V0H59.56V6.82a4.48,4.48,0,0,0-4.46,4.46V41.8a4.48,4.48,0,0,0,4.46,4.46v6.91H32.71V46.26a4.48,4.48,0,0,0,4.46-4.46V29.47H22.39V41.8a4.48,4.48,0,0,0,4.46,4.46v6.91H0V46.26A4.48,4.48,0,0,0,4.46,41.8V11.28A4.48,4.48,0,0,0,0,6.82V0"/>
    <path id="E" d="M69.7,0h45.65V15.83H106.6V11.28a4.48,4.48,0,0,0-4.46-4.46H92.7V22.65h10v6.82h-10V46.26h9.45a4.48,4.48,0,0,0,4.46-4.46V37.34h8.74V53.17H69.7V46.26a4.5,4.5,0,0,0,4.55-4.46V11.28A4.5,4.5,0,0,0,69.7,6.82V0"/>
    <path id="L" d="M124.74,0h27.55V6.82a4.5,4.5,0,0,0-4.55,4.46v35h9.45a4.48,4.48,0,0,0,4.46-4.46V37.34h8.75V53.17H124.74V46.26a4.48,4.48,0,0,0,4.46-4.46V11.28a4.48,4.48,0,0,0-4.46-4.46V0"/>
    <path id="L-2" data-name="L" d="M177.9,0h27.55V6.82a4.5,4.5,0,0,0-4.55,4.46v35h9.45a4.48,4.48,0,0,0,4.46-4.46V37.34h8.74V53.17H177.9V46.26a4.48,4.48,0,0,0,4.46-4.46V11.28a4.48,4.48,0,0,0-4.46-4.46V0"/>
    <path id="E-2" data-name="E" d="M231.06,0h45.57V15.83h-8.74V11.28a4.48,4.48,0,0,0-4.46-4.46h-9.36V22.65H264v6.82h-9.89V46.26h9.36a4.48,4.48,0,0,0,4.46-4.46V37.34h8.74V53.17H231.06V46.26a4.48,4.48,0,0,0,4.46-4.46V11.28a4.48,4.48,0,0,0-4.46-4.46V0"/>
    <path id="R" d="M286,0h33.41c9.29,0,14.25,4.49,16.12,10,2.55,7.49-.65,16.85-6.51,19.22,4.47-.08,3.85,17,11.11,17.06v6.91H322.49c-6-16.35-6.38-21.43-13.72-21.6V41.8a4.5,4.5,0,0,0,4.54,4.46v6.91H286V46.26a4.48,4.48,0,0,0,4.46-4.46V11.28A4.48,4.48,0,0,0,286,6.82V0h0Zm22.74,6.82V25.09h4.54c9,0,9-18.27,0-18.27h-4.54"/>
</svg>
