<?xml version="1.0" encoding="UTF-8"?>
<svg id="Layer_1" data-name="Layer 1" xmlns="http://www.w3.org/2000/svg" viewBox="0 0 2294.48 311.26">
  <defs>
    <style>
      .cls-1 {
        fill: #575757;
      }

      .cls-1, .cls-2 {
        font-family: VolvoNovum-Light, 'Volvo Novum';
        font-size: 107.43px;
        font-weight: 300;
      }

      .cls-3, .cls-2 {
        fill: #231f20;
      }

      .cls-4 {
        letter-spacing: 0em;
      }
    </style>
  </defs>
  <g id="BLOCK_RECORD">
    <polygon class="cls-3" points="67.9 145.23 95.63 195.61 127.74 195.64 155 145.22 168.67 145.23 168.67 136.09 127.57 136.09 127.57 145.22 139.44 145.22 119.59 181.92 99.47 145.23 113.9 145.22 113.89 136.09 54.26 136.09 54.25 145.23 67.9 145.23"/>
    <path class="cls-3" d="M421.25,145.2v-9.11s54.98,0,54.98,0v9.11h-13.7v41.13h12.7c11.77,0,19.48-7.77,19.48-18.32h9.07v27.54h-82.54s0-9.21,0-9.21h13.86l-.02-41.14h-13.84Z"/>
    <path d="M287.91,134.83c-27.61,0-42.28,13.77-42.28,31.06s14.12,31.49,42.44,31.49,42.28-13.97,42.28-31.49-14.82-31.06-42.44-31.06ZM287.6,187.93c-10.08-.18-14.52-11.33-14.32-22.4.2-11.47,5.69-21.47,15.13-21.3,9.45.17,14.43,10.36,14.23,21.82-.19,10.81-4.65,22.07-15.04,21.89Z"/>
    <polygon class="cls-3" points="597.59 145.23 625.32 195.61 657.44 195.64 684.7 145.22 698.36 145.23 698.36 136.09 657.26 136.09 657.26 145.22 669.13 145.22 649.28 181.92 629.16 145.23 643.59 145.22 643.59 136.09 583.95 136.09 583.94 145.23 597.59 145.23"/>
    <path d="M817.62,134.83c-27.61,0-42.28,13.77-42.28,31.06s14.12,31.49,42.44,31.49,42.28-13.97,42.28-31.49-14.82-31.06-42.44-31.06ZM817.31,187.93c-10.08-.18-14.52-11.33-14.32-22.4.2-11.47,5.69-21.47,15.13-21.3,9.45.17,14.43,10.36,14.23,21.82-.19,10.81-4.65,22.07-15.04,21.89Z"/>
  </g>
  <g>
    <text class="cls-2" transform="translate(1117.21 130.58)"><tspan x="0" y="0">Construction Equipment</tspan></text>
    <text class="cls-1" transform="translate(1118.75 269.98)"><tspan x="0" y="0">B</tspan><tspan class="cls-4" x="75.63" y="0">r</tspan><tspan x="112.26" y="0">asil</tspan></text>
  </g>
</svg>