<svg xmlns="http://www.w3.org/2000/svg" xmlns:xlink="http://www.w3.org/1999/xlink" width="1366" zoomAndPan="magnify" viewBox="0 0 1024.5 576" height="768" preserveAspectRatio="xMidYMid meet" version="1.0"><defs><g/></defs><path fill="#231f20" d="M 30.613281 276.804688 L 42.980469 299.25 L 57.300781 299.265625 L 69.457031 276.800781 L 75.554688 276.804688 L 75.554688 272.730469 L 57.222656 272.730469 L 57.222656 276.800781 L 62.519531 276.800781 L 53.664062 293.152344 L 44.691406 276.804688 L 51.128906 276.800781 L 51.121094 272.730469 L 24.527344 272.730469 L 24.523438 276.804688 Z M 30.613281 276.804688 " fill-opacity="1" fill-rule="nonzero"/><path fill="#231f20" d="M 188.207031 276.792969 L 188.207031 272.730469 C 188.207031 272.730469 212.726562 272.730469 212.726562 272.730469 L 212.726562 276.792969 L 206.617188 276.792969 L 206.617188 295.117188 L 212.28125 295.117188 C 217.53125 295.117188 220.96875 291.65625 220.96875 286.953125 L 225.015625 286.953125 L 225.015625 299.226562 L 188.203125 299.226562 C 188.203125 299.226562 188.203125 295.121094 188.203125 295.121094 L 194.382812 295.121094 L 194.375 276.792969 L 188.203125 276.792969 Z M 188.207031 276.792969 " fill-opacity="1" fill-rule="nonzero"/><path fill="#000000" d="M 128.738281 272.171875 C 116.421875 272.171875 109.878906 278.304688 109.878906 286.007812 C 109.878906 293.714844 116.175781 300.039062 128.808594 300.039062 C 141.4375 300.039062 147.664062 293.816406 147.664062 286.007812 C 147.664062 278.203125 141.054688 272.171875 128.738281 272.171875 Z M 128.597656 295.828125 C 124.101562 295.75 122.121094 290.78125 122.210938 285.847656 C 122.300781 280.738281 124.75 276.28125 128.960938 276.359375 C 133.175781 276.433594 135.394531 280.976562 135.304688 286.082031 C 135.222656 290.898438 133.230469 295.914062 128.597656 295.832031 Z M 128.597656 295.828125 " fill-opacity="1" fill-rule="nonzero"/><path fill="#231f20" d="M 266.855469 276.804688 L 279.222656 299.25 L 293.546875 299.265625 L 305.707031 276.800781 L 311.796875 276.804688 L 311.796875 272.730469 L 293.46875 272.730469 L 293.46875 276.800781 L 298.761719 276.800781 L 289.910156 293.152344 L 280.933594 276.804688 L 287.371094 276.800781 L 287.371094 272.730469 L 260.769531 272.730469 L 260.765625 276.804688 Z M 266.855469 276.804688 " fill-opacity="1" fill-rule="nonzero"/><path fill="#000000" d="M 364.988281 272.171875 C 352.675781 272.171875 346.132812 278.304688 346.132812 286.007812 C 346.132812 293.714844 352.429688 300.039062 365.058594 300.039062 C 377.691406 300.039062 383.917969 293.816406 383.917969 286.007812 C 383.917969 278.203125 377.308594 272.171875 364.988281 272.171875 Z M 364.851562 295.828125 C 360.355469 295.75 358.375 290.78125 358.464844 285.847656 C 358.554688 280.738281 361 276.28125 365.210938 276.359375 C 369.425781 276.433594 371.648438 280.976562 371.558594 286.082031 C 371.472656 290.898438 369.484375 295.914062 364.851562 295.832031 Z M 364.851562 295.828125 " fill-opacity="1" fill-rule="nonzero"/><g fill="#231f20" fill-opacity="1"><g transform="translate(498.606598, 270.277163)"><g><path d="M 18.109375 0.46875 C 13.023438 0.46875 9.0625 -0.910156 6.21875 -3.671875 C 3.382812 -6.441406 1.96875 -10.320312 1.96875 -15.3125 C 1.96875 -20.695312 3.332031 -24.769531 6.0625 -27.53125 C 8.789062 -30.300781 12.835938 -31.6875 18.203125 -31.6875 C 21.460938 -31.6875 24.960938 -31.289062 28.703125 -30.5 L 28.84375 -23.65625 L 27.296875 -23.65625 L 26.59375 -27.71875 C 25.5 -28.382812 24.226562 -28.898438 22.78125 -29.265625 C 21.34375 -29.628906 19.878906 -29.8125 18.390625 -29.8125 C 14.378906 -29.8125 11.453125 -28.632812 9.609375 -26.28125 C 7.773438 -23.9375 6.859375 -20.296875 6.859375 -15.359375 C 6.859375 -10.804688 7.816406 -7.328125 9.734375 -4.921875 C 11.660156 -2.523438 14.46875 -1.328125 18.15625 -1.328125 C 19.925781 -1.328125 21.597656 -1.539062 23.171875 -1.96875 C 24.753906 -2.40625 26.003906 -2.976562 26.921875 -3.6875 L 27.796875 -8.359375 L 29.3125 -8.359375 L 29.171875 -1 C 25.734375 -0.0195312 22.046875 0.46875 18.109375 0.46875 Z M 18.109375 0.46875 "/></g></g></g><g fill="#231f20" fill-opacity="1"><g transform="translate(530.559731, 270.277163)"><g><path d="M 22.125 -11.09375 C 22.125 -3.382812 18.695312 0.46875 11.84375 0.46875 C 8.53125 0.46875 6.03125 -0.519531 4.34375 -2.5 C 2.664062 -4.476562 1.828125 -7.34375 1.828125 -11.09375 C 1.828125 -14.800781 2.664062 -17.632812 4.34375 -19.59375 C 6.03125 -21.5625 8.585938 -22.546875 12.015625 -22.546875 C 15.359375 -22.546875 17.878906 -21.582031 19.578125 -19.65625 C 21.273438 -17.738281 22.125 -14.882812 22.125 -11.09375 Z M 17.921875 -11.09375 C 17.921875 -14.457031 17.425781 -16.894531 16.4375 -18.40625 C 15.457031 -19.925781 13.925781 -20.6875 11.84375 -20.6875 C 9.789062 -20.6875 8.304688 -19.957031 7.390625 -18.5 C 6.484375 -17.050781 6.03125 -14.582031 6.03125 -11.09375 C 6.03125 -7.5625 6.492188 -5.054688 7.421875 -3.578125 C 8.347656 -2.109375 9.820312 -1.375 11.84375 -1.375 C 13.894531 -1.375 15.421875 -2.132812 16.421875 -3.65625 C 17.421875 -5.1875 17.921875 -7.664062 17.921875 -11.09375 Z M 17.921875 -11.09375 "/></g></g></g><g fill="#231f20" fill-opacity="1"><g transform="translate(554.512885, 270.277163)"><g><path d="M 7.578125 -20.1875 C 8.773438 -20.875 10.050781 -21.4375 11.40625 -21.875 C 12.769531 -22.320312 13.90625 -22.546875 14.8125 -22.546875 C 16.707031 -22.546875 18.140625 -21.992188 19.109375 -20.890625 C 20.078125 -19.785156 20.5625 -18.179688 20.5625 -16.078125 L 20.5625 -1.640625 L 23.234375 -1.046875 L 23.234375 0 L 13.75 0 L 13.75 -1.046875 L 16.671875 -1.640625 L 16.671875 -15.65625 C 16.671875 -16.945312 16.351562 -17.960938 15.71875 -18.703125 C 15.09375 -19.441406 14.117188 -19.8125 12.796875 -19.8125 C 11.390625 -19.8125 9.664062 -19.585938 7.625 -19.140625 L 7.625 -1.640625 L 10.59375 -1.046875 L 10.59375 0 L 1.09375 0 L 1.09375 -1.046875 L 3.75 -1.640625 L 3.75 -20.328125 L 1.09375 -20.921875 L 1.09375 -21.96875 L 7.375 -21.96875 Z M 7.578125 -20.1875 "/></g></g></g><g fill="#231f20" fill-opacity="1"><g transform="translate(578.466039, 270.277163)"><g><path d="M 16.90625 -6.171875 C 16.90625 -3.984375 16.210938 -2.328125 14.828125 -1.203125 C 13.453125 -0.0859375 11.414062 0.46875 8.71875 0.46875 C 7.632812 0.46875 6.429688 0.351562 5.109375 0.125 C 3.796875 -0.09375 2.765625 -0.34375 2.015625 -0.625 L 2.015625 -6.03125 L 3.0625 -6.03125 L 4.203125 -2.96875 C 5.378906 -1.90625 6.898438 -1.375 8.765625 -1.375 C 11.796875 -1.375 13.3125 -2.671875 13.3125 -5.265625 C 13.3125 -7.160156 12.117188 -8.515625 9.734375 -9.328125 L 7.65625 -10 C 6.070312 -10.507812 4.921875 -11.03125 4.203125 -11.5625 C 3.492188 -12.09375 2.941406 -12.742188 2.546875 -13.515625 C 2.160156 -14.285156 1.96875 -15.21875 1.96875 -16.3125 C 1.96875 -18.238281 2.625 -19.757812 3.9375 -20.875 C 5.257812 -21.988281 7.039062 -22.546875 9.28125 -22.546875 C 10.894531 -22.546875 12.910156 -22.304688 15.328125 -21.828125 L 15.328125 -17.03125 L 14.21875 -17.03125 L 13.234375 -19.578125 C 12.410156 -20.316406 11.109375 -20.6875 9.328125 -20.6875 C 8.066406 -20.6875 7.101562 -20.375 6.4375 -19.75 C 5.78125 -19.125 5.453125 -18.28125 5.453125 -17.21875 C 5.453125 -16.332031 5.75 -15.582031 6.34375 -14.96875 C 6.945312 -14.363281 7.859375 -13.859375 9.078125 -13.453125 C 11.367188 -12.679688 12.863281 -12.113281 13.5625 -11.75 C 14.269531 -11.394531 14.867188 -10.957031 15.359375 -10.4375 C 15.847656 -9.914062 16.226562 -9.316406 16.5 -8.640625 C 16.769531 -7.972656 16.90625 -7.148438 16.90625 -6.171875 Z M 16.90625 -6.171875 "/></g></g></g><g fill="#231f20" fill-opacity="1"><g transform="translate(597.109265, 270.277163)"><g><path d="M 7.8125 0.46875 C 6.3125 0.46875 5.191406 0.0234375 4.453125 -0.859375 C 3.710938 -1.753906 3.34375 -3.003906 3.34375 -4.609375 L 3.34375 -20 L 0.46875 -20 L 0.46875 -21.0625 L 3.390625 -21.96875 L 5.75 -26.9375 L 7.234375 -26.9375 L 7.234375 -21.96875 L 12.25 -21.96875 L 12.25 -20 L 7.234375 -20 L 7.234375 -5.03125 C 7.234375 -4.007812 7.460938 -3.242188 7.921875 -2.734375 C 8.378906 -2.222656 8.984375 -1.96875 9.734375 -1.96875 C 10.640625 -1.96875 11.738281 -2.09375 13.03125 -2.34375 L 13.03125 -0.8125 C 12.476562 -0.4375 11.6875 -0.128906 10.65625 0.109375 C 9.632812 0.347656 8.6875 0.46875 7.8125 0.46875 Z M 7.8125 0.46875 "/></g></g></g><g fill="#231f20" fill-opacity="1"><g transform="translate(610.419172, 270.277163)"><g><path d="M 15.53125 -22.546875 L 15.53125 -16.609375 L 14.53125 -16.609375 L 13.171875 -19.1875 C 12.390625 -19.1875 11.460938 -19.082031 10.390625 -18.875 C 9.328125 -18.664062 8.40625 -18.390625 7.625 -18.046875 L 7.625 -1.640625 L 11.390625 -1.046875 L 11.390625 0 L 0.953125 0 L 0.953125 -1.046875 L 3.75 -1.640625 L 3.75 -20.328125 L 0.953125 -20.921875 L 0.953125 -21.96875 L 7.375 -21.96875 L 7.578125 -19.234375 C 8.515625 -20.015625 9.78125 -20.757812 11.375 -21.46875 C 12.976562 -22.1875 14.25 -22.546875 15.1875 -22.546875 Z M 15.53125 -22.546875 "/></g></g></g><g fill="#231f20" fill-opacity="1"><g transform="translate(626.372347, 270.277163)"><g><path d="M 7.328125 -6.265625 C 7.328125 -3.585938 8.570312 -2.25 11.0625 -2.25 C 13 -2.25 14.804688 -2.488281 16.484375 -2.96875 L 16.484375 -20.328125 L 13.171875 -20.921875 L 13.171875 -21.96875 L 20.34375 -21.96875 L 20.34375 -1.640625 L 23.140625 -1.046875 L 23.140625 0 L 16.71875 0 L 16.53125 -1.78125 C 15.425781 -1.164062 14.148438 -0.632812 12.703125 -0.1875 C 11.253906 0.25 10.035156 0.46875 9.046875 0.46875 C 5.304688 0.46875 3.4375 -1.679688 3.4375 -5.984375 L 3.4375 -20.328125 L 0.625 -20.921875 L 0.625 -21.96875 L 7.328125 -21.96875 Z M 7.328125 -6.265625 "/></g></g></g><g fill="#231f20" fill-opacity="1"><g transform="translate(650.325501, 270.277163)"><g><path d="M 19.796875 -1.328125 C 19.023438 -0.765625 17.96875 -0.320312 16.625 0 C 15.289062 0.3125 13.921875 0.46875 12.515625 0.46875 C 5.390625 0.46875 1.828125 -3.398438 1.828125 -11.140625 C 1.828125 -14.804688 2.734375 -17.625 4.546875 -19.59375 C 6.367188 -21.5625 8.96875 -22.546875 12.34375 -22.546875 C 14.457031 -22.546875 16.757812 -22.304688 19.25 -21.828125 L 19.25 -15.703125 L 17.96875 -15.703125 L 16.953125 -19.578125 C 15.660156 -20.316406 14.109375 -20.6875 12.296875 -20.6875 C 8.117188 -20.6875 6.03125 -17.503906 6.03125 -11.140625 C 6.03125 -7.835938 6.664062 -5.484375 7.9375 -4.078125 C 9.207031 -2.671875 11.175781 -1.96875 13.84375 -1.96875 C 16.125 -1.96875 18.109375 -2.222656 19.796875 -2.734375 Z M 19.796875 -1.328125 "/></g></g></g><g fill="#231f20" fill-opacity="1"><g transform="translate(671.588604, 270.277163)"><g><path d="M 7.8125 0.46875 C 6.3125 0.46875 5.191406 0.0234375 4.453125 -0.859375 C 3.710938 -1.753906 3.34375 -3.003906 3.34375 -4.609375 L 3.34375 -20 L 0.46875 -20 L 0.46875 -21.0625 L 3.390625 -21.96875 L 5.75 -26.9375 L 7.234375 -26.9375 L 7.234375 -21.96875 L 12.25 -21.96875 L 12.25 -20 L 7.234375 -20 L 7.234375 -5.03125 C 7.234375 -4.007812 7.460938 -3.242188 7.921875 -2.734375 C 8.378906 -2.222656 8.984375 -1.96875 9.734375 -1.96875 C 10.640625 -1.96875 11.738281 -2.09375 13.03125 -2.34375 L 13.03125 -0.8125 C 12.476562 -0.4375 11.6875 -0.128906 10.65625 0.109375 C 9.632812 0.347656 8.6875 0.46875 7.8125 0.46875 Z M 7.8125 0.46875 "/></g></g></g><g fill="#231f20" fill-opacity="1"><g transform="translate(684.89851, 270.277163)"><g><path d="M 8.859375 -29.140625 C 8.859375 -28.453125 8.609375 -27.859375 8.109375 -27.359375 C 7.617188 -26.859375 7.019531 -26.609375 6.3125 -26.609375 C 5.625 -26.609375 5.03125 -26.859375 4.53125 -27.359375 C 4.039062 -27.859375 3.796875 -28.453125 3.796875 -29.140625 C 3.796875 -29.835938 4.039062 -30.4375 4.53125 -30.9375 C 5.03125 -31.4375 5.625 -31.6875 6.3125 -31.6875 C 7.019531 -31.6875 7.617188 -31.4375 8.109375 -30.9375 C 8.609375 -30.4375 8.859375 -29.835938 8.859375 -29.140625 Z M 8.625 -1.640625 L 12.390625 -1.046875 L 12.390625 0 L 1 0 L 1 -1.046875 L 4.75 -1.640625 L 4.75 -20.328125 L 1.640625 -20.921875 L 1.640625 -21.96875 L 8.625 -21.96875 Z M 8.625 -1.640625 "/></g></g></g><g fill="#231f20" fill-opacity="1"><g transform="translate(698.208406, 270.277163)"><g><path d="M 22.125 -11.09375 C 22.125 -3.382812 18.695312 0.46875 11.84375 0.46875 C 8.53125 0.46875 6.03125 -0.519531 4.34375 -2.5 C 2.664062 -4.476562 1.828125 -7.34375 1.828125 -11.09375 C 1.828125 -14.800781 2.664062 -17.632812 4.34375 -19.59375 C 6.03125 -21.5625 8.585938 -22.546875 12.015625 -22.546875 C 15.359375 -22.546875 17.878906 -21.582031 19.578125 -19.65625 C 21.273438 -17.738281 22.125 -14.882812 22.125 -11.09375 Z M 17.921875 -11.09375 C 17.921875 -14.457031 17.425781 -16.894531 16.4375 -18.40625 C 15.457031 -19.925781 13.925781 -20.6875 11.84375 -20.6875 C 9.789062 -20.6875 8.304688 -19.957031 7.390625 -18.5 C 6.484375 -17.050781 6.03125 -14.582031 6.03125 -11.09375 C 6.03125 -7.5625 6.492188 -5.054688 7.421875 -3.578125 C 8.347656 -2.109375 9.820312 -1.375 11.84375 -1.375 C 13.894531 -1.375 15.421875 -2.132812 16.421875 -3.65625 C 17.421875 -5.1875 17.921875 -7.664062 17.921875 -11.09375 Z M 17.921875 -11.09375 "/></g></g></g><g fill="#231f20" fill-opacity="1"><g transform="translate(722.16156, 270.277163)"><g><path d="M 7.578125 -20.1875 C 8.773438 -20.875 10.050781 -21.4375 11.40625 -21.875 C 12.769531 -22.320312 13.90625 -22.546875 14.8125 -22.546875 C 16.707031 -22.546875 18.140625 -21.992188 19.109375 -20.890625 C 20.078125 -19.785156 20.5625 -18.179688 20.5625 -16.078125 L 20.5625 -1.640625 L 23.234375 -1.046875 L 23.234375 0 L 13.75 0 L 13.75 -1.046875 L 16.671875 -1.640625 L 16.671875 -15.65625 C 16.671875 -16.945312 16.351562 -17.960938 15.71875 -18.703125 C 15.09375 -19.441406 14.117188 -19.8125 12.796875 -19.8125 C 11.390625 -19.8125 9.664062 -19.585938 7.625 -19.140625 L 7.625 -1.640625 L 10.59375 -1.046875 L 10.59375 0 L 1.09375 0 L 1.09375 -1.046875 L 3.75 -1.640625 L 3.75 -20.328125 L 1.09375 -20.921875 L 1.09375 -21.96875 L 7.375 -21.96875 Z M 7.578125 -20.1875 "/></g></g></g><g fill="#231f20" fill-opacity="1"><g transform="translate(746.114714, 270.277163)"><g/></g></g><g fill="#231f20" fill-opacity="1"><g transform="translate(758.091291, 270.277163)"><g><path d="M 1.375 -1.234375 L 5.40625 -1.875 L 5.40625 -29.484375 L 1.375 -30.09375 L 1.375 -31.34375 L 24.90625 -31.34375 L 24.90625 -23.84375 L 23.375 -23.84375 L 22.625 -28.90625 C 20.875 -29.125 18.347656 -29.234375 15.046875 -29.234375 L 9.921875 -29.234375 L 9.921875 -16.984375 L 18.390625 -16.984375 L 19.109375 -20.734375 L 20.609375 -20.734375 L 20.609375 -11.09375 L 19.109375 -11.09375 L 18.390625 -14.890625 L 9.921875 -14.890625 L 9.921875 -2.109375 L 16.09375 -2.109375 C 20.113281 -2.109375 22.75 -2.234375 24 -2.484375 L 25.328125 -8.265625 L 26.875 -8.265625 L 26.4375 0 L 1.375 0 Z M 1.375 -1.234375 "/></g></g></g><g fill="#231f20" fill-opacity="1"><g transform="translate(787.354385, 270.277163)"><g><path d="M 19.015625 -23.015625 L 20.65625 -23.015625 L 20.65625 8.53125 L 23.09375 9.09375 L 23.09375 10.1875 L 13.75 10.1875 L 13.75 9.09375 L 16.765625 8.53125 L 16.765625 2.4375 C 16.765625 0.914062 16.84375 -0.382812 17 -1.46875 C 15.332031 -0.175781 13.242188 0.46875 10.734375 0.46875 C 4.734375 0.46875 1.734375 -3.320312 1.734375 -10.90625 C 1.734375 -14.664062 2.578125 -17.546875 4.265625 -19.546875 C 5.960938 -21.546875 8.441406 -22.546875 11.703125 -22.546875 C 13.441406 -22.546875 15.175781 -22.367188 16.90625 -22.015625 Z M 5.9375 -10.90625 C 5.9375 -7.9375 6.429688 -5.703125 7.421875 -4.203125 C 8.410156 -2.710938 9.941406 -1.96875 12.015625 -1.96875 C 12.941406 -1.96875 13.851562 -2.046875 14.75 -2.203125 C 15.644531 -2.359375 16.316406 -2.535156 16.765625 -2.734375 L 16.765625 -20.234375 C 15.378906 -20.503906 13.796875 -20.640625 12.015625 -20.640625 C 7.960938 -20.640625 5.9375 -17.394531 5.9375 -10.90625 Z M 5.9375 -10.90625 "/></g></g></g><g fill="#231f20" fill-opacity="1"><g transform="translate(811.307539, 270.277163)"><g><path d="M 7.328125 -6.265625 C 7.328125 -3.585938 8.570312 -2.25 11.0625 -2.25 C 13 -2.25 14.804688 -2.488281 16.484375 -2.96875 L 16.484375 -20.328125 L 13.171875 -20.921875 L 13.171875 -21.96875 L 20.34375 -21.96875 L 20.34375 -1.640625 L 23.140625 -1.046875 L 23.140625 0 L 16.71875 0 L 16.53125 -1.78125 C 15.425781 -1.164062 14.148438 -0.632812 12.703125 -0.1875 C 11.253906 0.25 10.035156 0.46875 9.046875 0.46875 C 5.304688 0.46875 3.4375 -1.679688 3.4375 -5.984375 L 3.4375 -20.328125 L 0.625 -20.921875 L 0.625 -21.96875 L 7.328125 -21.96875 Z M 7.328125 -6.265625 "/></g></g></g><g fill="#231f20" fill-opacity="1"><g transform="translate(835.260693, 270.277163)"><g><path d="M 8.859375 -29.140625 C 8.859375 -28.453125 8.609375 -27.859375 8.109375 -27.359375 C 7.617188 -26.859375 7.019531 -26.609375 6.3125 -26.609375 C 5.625 -26.609375 5.03125 -26.859375 4.53125 -27.359375 C 4.039062 -27.859375 3.796875 -28.453125 3.796875 -29.140625 C 3.796875 -29.835938 4.039062 -30.4375 4.53125 -30.9375 C 5.03125 -31.4375 5.625 -31.6875 6.3125 -31.6875 C 7.019531 -31.6875 7.617188 -31.4375 8.109375 -30.9375 C 8.609375 -30.4375 8.859375 -29.835938 8.859375 -29.140625 Z M 8.625 -1.640625 L 12.390625 -1.046875 L 12.390625 0 L 1 0 L 1 -1.046875 L 4.75 -1.640625 L 4.75 -20.328125 L 1.640625 -20.921875 L 1.640625 -21.96875 L 8.625 -21.96875 Z M 8.625 -1.640625 "/></g></g></g><g fill="#231f20" fill-opacity="1"><g transform="translate(848.570588, 270.277163)"><g><path d="M 3.5625 -20.328125 L 1.046875 -20.921875 L 1.046875 -21.96875 L 7.234375 -21.96875 L 7.28125 -20.6875 C 7.925781 -21.238281 8.800781 -21.6875 9.90625 -22.03125 C 11.007812 -22.375 12.128906 -22.546875 13.265625 -22.546875 C 16.066406 -22.546875 18.234375 -21.570312 19.765625 -19.625 C 21.304688 -17.675781 22.078125 -14.878906 22.078125 -11.234375 C 22.078125 -7.515625 21.238281 -4.632812 19.5625 -2.59375 C 17.882812 -0.550781 15.460938 0.46875 12.296875 0.46875 C 10.535156 0.46875 8.863281 0.296875 7.28125 -0.046875 C 7.375 1.078125 7.421875 1.957031 7.421875 2.59375 L 7.421875 8.53125 L 11.25 9.09375 L 11.25 10.1875 L 0.765625 10.1875 L 0.765625 9.09375 L 3.5625 8.53125 Z M 17.875 -11.234375 C 17.875 -14.234375 17.382812 -16.457031 16.40625 -17.90625 C 15.4375 -19.363281 13.960938 -20.09375 11.984375 -20.09375 C 10.148438 -20.09375 8.628906 -19.835938 7.421875 -19.328125 L 7.421875 -1.78125 C 8.804688 -1.507812 10.328125 -1.375 11.984375 -1.375 C 15.910156 -1.375 17.875 -4.660156 17.875 -11.234375 Z M 17.875 -11.234375 "/></g></g></g><g fill="#231f20" fill-opacity="1"><g transform="translate(872.523742, 270.277163)"><g><path d="M 7.625 -20.1875 C 8.789062 -20.863281 10.03125 -21.425781 11.34375 -21.875 C 12.65625 -22.320312 13.8125 -22.546875 14.8125 -22.546875 C 15.882812 -22.546875 16.875 -22.34375 17.78125 -21.9375 C 18.695312 -21.53125 19.382812 -20.882812 19.84375 -20 C 21.039062 -20.675781 22.445312 -21.269531 24.0625 -21.78125 C 25.675781 -22.289062 27.007812 -22.546875 28.0625 -22.546875 C 31.8125 -22.546875 33.6875 -20.390625 33.6875 -16.078125 L 33.6875 -1.640625 L 36.515625 -1.046875 L 36.515625 0 L 26.53125 0 L 26.53125 -1.046875 L 29.796875 -1.640625 L 29.796875 -15.65625 C 29.796875 -18.332031 28.550781 -19.671875 26.0625 -19.671875 C 25.65625 -19.671875 25.179688 -19.640625 24.640625 -19.578125 C 24.109375 -19.515625 23.570312 -19.441406 23.03125 -19.359375 C 22.488281 -19.285156 21.972656 -19.195312 21.484375 -19.09375 C 20.992188 -19 20.582031 -18.921875 20.25 -18.859375 C 20.519531 -18.015625 20.65625 -17.085938 20.65625 -16.078125 L 20.65625 -1.640625 L 23.953125 -1.046875 L 23.953125 0 L 13.515625 0 L 13.515625 -1.046875 L 16.765625 -1.640625 L 16.765625 -15.65625 C 16.765625 -16.945312 16.429688 -17.9375 15.765625 -18.625 C 15.109375 -19.320312 14.117188 -19.671875 12.796875 -19.671875 C 11.421875 -19.671875 9.710938 -19.445312 7.671875 -19 L 7.671875 -1.640625 L 10.96875 -1.046875 L 10.96875 0 L 1 0 L 1 -1.046875 L 3.796875 -1.640625 L 3.796875 -20.328125 L 1 -20.921875 L 1 -21.96875 L 7.4375 -21.96875 Z M 7.625 -20.1875 "/></g></g></g><g fill="#231f20" fill-opacity="1"><g transform="translate(909.786792, 270.277163)"><g><path d="M 6.078125 -11.046875 L 6.078125 -10.640625 C 6.078125 -8.484375 6.316406 -6.804688 6.796875 -5.609375 C 7.273438 -4.421875 8.007812 -3.515625 9 -2.890625 C 9.988281 -2.273438 11.285156 -1.96875 12.890625 -1.96875 C 13.734375 -1.96875 14.726562 -2.035156 15.875 -2.171875 C 17.03125 -2.316406 17.984375 -2.472656 18.734375 -2.640625 L 18.734375 -1.328125 C 17.984375 -0.847656 16.960938 -0.425781 15.671875 -0.0625 C 14.390625 0.289062 13.082031 0.46875 11.75 0.46875 C 8.332031 0.46875 5.832031 -0.445312 4.25 -2.28125 C 2.664062 -4.125 1.875 -7.078125 1.875 -11.140625 C 1.875 -14.972656 2.675781 -17.832031 4.28125 -19.71875 C 5.882812 -21.601562 8.175781 -22.546875 11.15625 -22.546875 C 16.789062 -22.546875 19.609375 -19.351562 19.609375 -12.96875 L 19.609375 -11.046875 Z M 11.15625 -20.6875 C 9.53125 -20.6875 8.285156 -20.03125 7.421875 -18.71875 C 6.554688 -17.40625 6.125 -15.472656 6.125 -12.921875 L 15.53125 -12.921875 C 15.53125 -15.710938 15.171875 -17.703125 14.453125 -18.890625 C 13.734375 -20.085938 12.632812 -20.6875 11.15625 -20.6875 Z M 11.15625 -20.6875 "/></g></g></g><g fill="#231f20" fill-opacity="1"><g transform="translate(931.049929, 270.277163)"><g><path d="M 7.578125 -20.1875 C 8.773438 -20.875 10.050781 -21.4375 11.40625 -21.875 C 12.769531 -22.320312 13.90625 -22.546875 14.8125 -22.546875 C 16.707031 -22.546875 18.140625 -21.992188 19.109375 -20.890625 C 20.078125 -19.785156 20.5625 -18.179688 20.5625 -16.078125 L 20.5625 -1.640625 L 23.234375 -1.046875 L 23.234375 0 L 13.75 0 L 13.75 -1.046875 L 16.671875 -1.640625 L 16.671875 -15.65625 C 16.671875 -16.945312 16.351562 -17.960938 15.71875 -18.703125 C 15.09375 -19.441406 14.117188 -19.8125 12.796875 -19.8125 C 11.390625 -19.8125 9.664062 -19.585938 7.625 -19.140625 L 7.625 -1.640625 L 10.59375 -1.046875 L 10.59375 0 L 1.09375 0 L 1.09375 -1.046875 L 3.75 -1.640625 L 3.75 -20.328125 L 1.09375 -20.921875 L 1.09375 -21.96875 L 7.375 -21.96875 Z M 7.578125 -20.1875 "/></g></g></g><g fill="#231f20" fill-opacity="1"><g transform="translate(955.003083, 270.277163)"><g><path d="M 7.8125 0.46875 C 6.3125 0.46875 5.191406 0.0234375 4.453125 -0.859375 C 3.710938 -1.753906 3.34375 -3.003906 3.34375 -4.609375 L 3.34375 -20 L 0.46875 -20 L 0.46875 -21.0625 L 3.390625 -21.96875 L 5.75 -26.9375 L 7.234375 -26.9375 L 7.234375 -21.96875 L 12.25 -21.96875 L 12.25 -20 L 7.234375 -20 L 7.234375 -5.03125 C 7.234375 -4.007812 7.460938 -3.242188 7.921875 -2.734375 C 8.378906 -2.222656 8.984375 -1.96875 9.734375 -1.96875 C 10.640625 -1.96875 11.738281 -2.09375 13.03125 -2.34375 L 13.03125 -0.8125 C 12.476562 -0.4375 11.6875 -0.128906 10.65625 0.109375 C 9.632812 0.347656 8.6875 0.46875 7.8125 0.46875 Z M 7.8125 0.46875 "/></g></g></g><g fill="#575757" fill-opacity="1"><g transform="translate(499.293455, 332.387015)"><g><path d="M 22.40625 -23.75 C 22.40625 -25.65625 21.804688 -27.046875 20.609375 -27.921875 C 19.410156 -28.796875 17.460938 -29.234375 14.765625 -29.234375 L 9.921875 -29.234375 L 9.921875 -17.390625 L 15.046875 -17.390625 C 17.566406 -17.390625 19.421875 -17.882812 20.609375 -18.875 C 21.804688 -19.875 22.40625 -21.5 22.40625 -23.75 Z M 24.765625 -8.921875 C 24.765625 -11.117188 24.03125 -12.726562 22.5625 -13.75 C 21.101562 -14.769531 18.757812 -15.28125 15.53125 -15.28125 L 9.921875 -15.28125 L 9.921875 -2.109375 C 12.066406 -2.015625 14.359375 -1.96875 16.796875 -1.96875 C 19.460938 -1.96875 21.457031 -2.53125 22.78125 -3.65625 C 24.101562 -4.78125 24.765625 -6.535156 24.765625 -8.921875 Z M 1.375 0 L 1.375 -1.234375 L 5.40625 -1.875 L 5.40625 -29.484375 L 1.375 -30.09375 L 1.375 -31.34375 L 15.71875 -31.34375 C 19.695312 -31.34375 22.601562 -30.753906 24.4375 -29.578125 C 26.28125 -28.398438 27.203125 -26.53125 27.203125 -23.96875 C 27.203125 -22.132812 26.632812 -20.570312 25.5 -19.28125 C 24.375 -17.988281 22.789062 -17.125 20.75 -16.6875 C 23.570312 -16.382812 25.753906 -15.5625 27.296875 -14.21875 C 28.835938 -12.875 29.609375 -11.140625 29.609375 -9.015625 C 29.609375 -6.015625 28.566406 -3.738281 26.484375 -2.1875 C 24.410156 -0.632812 21.375 0.140625 17.375 0.140625 L 7.375 0 Z M 1.375 0 "/></g></g></g><g fill="#575757" fill-opacity="1"><g transform="translate(533.015279, 332.387015)"><g><path d="M 15.53125 -22.546875 L 15.53125 -16.609375 L 14.53125 -16.609375 L 13.171875 -19.1875 C 12.390625 -19.1875 11.460938 -19.082031 10.390625 -18.875 C 9.328125 -18.664062 8.40625 -18.390625 7.625 -18.046875 L 7.625 -1.640625 L 11.390625 -1.046875 L 11.390625 0 L 0.953125 0 L 0.953125 -1.046875 L 3.75 -1.640625 L 3.75 -20.328125 L 0.953125 -20.921875 L 0.953125 -21.96875 L 7.375 -21.96875 L 7.578125 -19.234375 C 8.515625 -20.015625 9.78125 -20.757812 11.375 -21.46875 C 12.976562 -22.1875 14.25 -22.546875 15.1875 -22.546875 Z M 15.53125 -22.546875 "/></g></g></g><g fill="#575757" fill-opacity="1"><g transform="translate(549.354961, 332.387015)"><g><path d="M 10.875 -22.453125 C 13.28125 -22.453125 15.046875 -21.960938 16.171875 -20.984375 C 17.304688 -20.003906 17.875 -18.5 17.875 -16.46875 L 17.875 -1.640625 L 20.609375 -1.046875 L 20.609375 0 L 14.578125 0 L 14.125 -2.203125 C 12.351562 -0.421875 10.085938 0.46875 7.328125 0.46875 C 3.566406 0.46875 1.6875 -1.710938 1.6875 -6.078125 C 1.6875 -7.535156 1.96875 -8.742188 2.53125 -9.703125 C 3.101562 -10.660156 4.015625 -11.394531 5.265625 -11.90625 C 6.515625 -12.414062 8.320312 -12.691406 10.6875 -12.734375 L 13.984375 -12.828125 L 13.984375 -16.265625 C 13.984375 -17.773438 13.707031 -18.890625 13.15625 -19.609375 C 12.601562 -20.328125 11.75 -20.6875 10.59375 -20.6875 C 9.03125 -20.6875 7.601562 -20.316406 6.3125 -19.578125 L 5.515625 -16.84375 L 4.203125 -16.84375 L 4.203125 -21.640625 C 6.734375 -22.179688 8.957031 -22.453125 10.875 -22.453125 Z M 13.984375 -11.1875 L 10.921875 -11.09375 C 8.835938 -11.019531 7.421875 -10.613281 6.671875 -9.875 C 5.929688 -9.144531 5.5625 -7.925781 5.5625 -6.21875 C 5.5625 -3.476562 6.675781 -2.109375 8.90625 -2.109375 C 9.96875 -2.109375 10.882812 -2.226562 11.65625 -2.46875 C 12.425781 -2.707031 13.203125 -3.015625 13.984375 -3.390625 Z M 13.984375 -11.1875 "/></g></g></g><g fill="#575757" fill-opacity="1"><g transform="translate(570.618063, 332.387015)"><g><path d="M 16.90625 -6.171875 C 16.90625 -3.984375 16.210938 -2.328125 14.828125 -1.203125 C 13.453125 -0.0859375 11.414062 0.46875 8.71875 0.46875 C 7.632812 0.46875 6.429688 0.351562 5.109375 0.125 C 3.796875 -0.09375 2.765625 -0.34375 2.015625 -0.625 L 2.015625 -6.03125 L 3.0625 -6.03125 L 4.203125 -2.96875 C 5.378906 -1.90625 6.898438 -1.375 8.765625 -1.375 C 11.796875 -1.375 13.3125 -2.671875 13.3125 -5.265625 C 13.3125 -7.160156 12.117188 -8.515625 9.734375 -9.328125 L 7.65625 -10 C 6.070312 -10.507812 4.921875 -11.03125 4.203125 -11.5625 C 3.492188 -12.09375 2.941406 -12.742188 2.546875 -13.515625 C 2.160156 -14.285156 1.96875 -15.21875 1.96875 -16.3125 C 1.96875 -18.238281 2.625 -19.757812 3.9375 -20.875 C 5.257812 -21.988281 7.039062 -22.546875 9.28125 -22.546875 C 10.894531 -22.546875 12.910156 -22.304688 15.328125 -21.828125 L 15.328125 -17.03125 L 14.21875 -17.03125 L 13.234375 -19.578125 C 12.410156 -20.316406 11.109375 -20.6875 9.328125 -20.6875 C 8.066406 -20.6875 7.101562 -20.375 6.4375 -19.75 C 5.78125 -19.125 5.453125 -18.28125 5.453125 -17.21875 C 5.453125 -16.332031 5.75 -15.582031 6.34375 -14.96875 C 6.945312 -14.363281 7.859375 -13.859375 9.078125 -13.453125 C 11.367188 -12.679688 12.863281 -12.113281 13.5625 -11.75 C 14.269531 -11.394531 14.867188 -10.957031 15.359375 -10.4375 C 15.847656 -9.914062 16.226562 -9.316406 16.5 -8.640625 C 16.769531 -7.972656 16.90625 -7.148438 16.90625 -6.171875 Z M 16.90625 -6.171875 "/></g></g></g><g fill="#575757" fill-opacity="1"><g transform="translate(589.26129, 332.387015)"><g><path d="M 8.859375 -29.140625 C 8.859375 -28.453125 8.609375 -27.859375 8.109375 -27.359375 C 7.617188 -26.859375 7.019531 -26.609375 6.3125 -26.609375 C 5.625 -26.609375 5.03125 -26.859375 4.53125 -27.359375 C 4.039062 -27.859375 3.796875 -28.453125 3.796875 -29.140625 C 3.796875 -29.835938 4.039062 -30.4375 4.53125 -30.9375 C 5.03125 -31.4375 5.625 -31.6875 6.3125 -31.6875 C 7.019531 -31.6875 7.617188 -31.4375 8.109375 -30.9375 C 8.609375 -30.4375 8.859375 -29.835938 8.859375 -29.140625 Z M 8.625 -1.640625 L 12.390625 -1.046875 L 12.390625 0 L 1 0 L 1 -1.046875 L 4.75 -1.640625 L 4.75 -20.328125 L 1.640625 -20.921875 L 1.640625 -21.96875 L 8.625 -21.96875 Z M 8.625 -1.640625 "/></g></g></g><g fill="#575757" fill-opacity="1"><g transform="translate(602.571196, 332.387015)"><g><path d="M 8.578125 -1.640625 L 12.34375 -1.046875 L 12.34375 0 L 0.953125 0 L 0.953125 -1.046875 L 4.703125 -1.640625 L 4.703125 -31.59375 L 0.953125 -32.15625 L 0.953125 -33.203125 L 8.578125 -33.203125 Z M 8.578125 -1.640625 "/></g></g></g></svg>